# xmcd
#
# Track frame offsets:
#	150
#	15911
#	34662
#	50408
#
# Disc length: 919 seconds
#
# Revision: 0
# Processed by: cddbd v1.5.2PL0 Copyright (c) Steve Scherf et al.
# Submitted via: dBpowerAMP V4.0
#
DISCID=22039504
DTITLE=Tohoshinki - Trick02-Runaway
DYEAR=2008
DGENRE=JPop
TTITLE0=Runaway
TTITLE1=My Girlfriend
TTITLE2=Runaway(less vocal)
TTITLE3=My Girlfriend(less vocal)
EXTD=
EXTT0=
EXTT1=
EXTT2=
EXTT3=
PLAYORDER=
